Coordinates
version=1
nRows=11
nColumns=40
inDegrees=yes

Units are S.I. units (second, meters, Newtons, ...)
If the header above contains a line with 'inDegrees', this indicates whether rotational values are in degrees (yes) or radians (no).

endheader
time	pelvis_tilt	pelvis_list	pelvis_rotation	pelvis_tx	pelvis_ty	pelvis_tz	hip_flexion_r	hip_adduction_r	hip_rotation_r	knee_angle_r	knee_angle_r_beta	ankle_angle_r	subtalar_angle_r	mtp_angle_r	hip_flexion_l	hip_adduction_l	hip_rotation_l	knee_angle_l	knee_angle_l_beta	ankle_angle_l	subtalar_angle_l	mtp_angle_l	lumbar_extension	lumbar_bending	lumbar_rotation	arm_flex_r	arm_add_r	arm_rot_r	elbow_flex_r	pro_sup_r	wrist_flex_r	wrist_dev_r	arm_flex_l	arm_add_l	arm_rot_l	elbow_flex_l	pro_sup_l	wrist_flex_l	wrist_dev_l
      3.88300000	    -18.14407216	     -2.08743742	      6.33708582	      0.08569669	      1.28785395	     -0.01197054	     84.14078288	     -2.44267609	     10.72755088	     92.74566117	      1.61871715	      1.39528435	    -26.05376626	      0.00000000	     44.05451354	     -9.22256214	     -0.78737338	     50.46923950	      0.88085440	     -8.69432209	    -13.62335460	      0.00000000	    -48.17828607	     -4.77082617	      2.43168803	     54.80185531	     19.53237431	    -38.77586630	     53.48614041	      0.87446015	      0.00000000	      0.00000000	     53.69652319	      5.95800019	    -20.92274695	     41.36148775	      3.46485299	      0.00000000	      0.00000000
      3.90000000	    -18.08206821	     -2.16241909	      6.89566854	      0.08581816	      1.28806445	     -0.01277982	     83.01070495	     -2.98530558	     10.21093214	     89.96326427	      1.57015517	      2.97016383	    -26.39849268	      0.00000000	     45.01534578	     -9.10108904	     -0.31335875	     53.92421364	      0.94115507	     -7.58354960	    -13.54534661	      0.00000000	    -48.23442463	     -4.43037385	      2.16606951	     54.72507082	     19.42877100	    -38.77386339	     53.54794344	      0.89015691	      0.00000000	      0.00000000	     53.76208898	      5.90036678	    -20.54733553	     41.30646328	      3.11745785	      0.00000000	      0.00000000
      3.91700000	    -17.99266342	     -1.86068459	      7.41338662	      0.08604179	      1.28834948	     -0.01350564	     81.64341028	     -3.62926921	      9.93115163	     86.94586213	      1.51749157	      4.18181316	    -26.90988578	      0.00000000	     45.97812729	     -8.77245940	     -0.16890580	     57.48062760	      1.00322621	     -6.72355421	    -13.42546998	      0.00000000	    -48.39804045	     -4.44171317	      1.67217556	     54.65185992	     19.39959203	    -38.89837353	     53.66922122	      0.88167667	      0.00000000	      0.00000000	     53.89713454	      5.90615997	    -20.27554361	     41.24732075	      3.02863977	      0.00000000	      0.00000000
      3.93300000	    -17.87645048	     -1.71425976	      8.04275284	      0.08607116	      1.28874146	     -0.01438076	     80.00455182	     -4.36235211	      9.39877894	     83.60393839	      1.45916399	      5.03061829	    -27.33721774	      0.00000000	     47.18192733	     -8.46630679	      0.33845509	     61.23766950	      1.06879896	     -5.97785555	    -13.07302572	      0.00000000	    -48.58473248	     -4.24327551	      1.21692812	     54.60509210	     19.37792124	    -39.05467378	     53.80017771	      0.88074053	      0.00000000	      0.00000000	     54.03965300	      5.90491168	    -19.97664782	     41.21640948	      2.97702187	      0.00000000	      0.00000000
      3.95000000	    -17.77099925	     -1.57702398	      8.75473222	      0.08605165	      1.28911677	     -0.01529641	     78.21764767	     -5.17088649	      8.77168432	     80.17112318	      1.39925006	      5.29658705	    -27.83811109	      0.00000000	     48.48741929	     -8.10826561	      0.92408765	     64.99327211	      1.13434659	     -5.29107397	    -12.64170854	      0.00000000	    -48.75593548	     -3.98730814	      0.71521053	     54.54945743	     19.36842890	    -39.24628444	     53.95880011	      0.87910442	      0.00000000	      0.00000000	     54.14431455	      5.93447818	    -19.77982861	     41.19663929	      2.94029326	      0.00000000	      0.00000000
      3.96700000	    -17.66795149	     -1.26818866	      9.46548345	      0.08596780	      1.28950876	     -0.01620276	     76.31575933	     -6.06658305	      8.16037013	     76.69744670	      1.33862297	      4.85968743	    -28.23899292	      0.00000000	     49.78775667	     -7.59485262	      1.38894297	     68.73003253	      1.19956536	     -4.57978123	    -12.32963151	      0.00000000	    -48.94895890	     -3.87844574	      0.04792210	     54.45800616	     19.44759524	    -39.49838510	     54.09864894	      0.87351202	      0.00000000	      0.00000000	     54.20604008	      5.99622138	    -19.67183837	     41.25839902	      2.93768956	      0.00000000	      0.00000000
      3.98300000	    -17.58740793	     -1.05944825	     10.32753448	      0.08574194	      1.28993075	     -0.01725353	     74.25249142	     -7.04847079	      7.29570247	     73.07921077	      1.27547284	      3.80613016	    -28.99621308	      0.00000000	     51.27355074	     -7.01747437	      2.11957331	     72.45156254	      1.26451831	     -4.12265431	    -11.61504096	      0.00000000	    -49.10440586	     -3.58463463	     -0.67362780	     54.35401546	     19.52049319	    -39.69858968	     54.19324978	      0.87520656	      0.00000000	      0.00000000	     54.22399945	      6.08932418	    -19.69038642	     41.35636007	      2.93988315	      0.00000000	      0.00000000
      4.00000000	    -17.55315363	     -0.57631807	     10.98753693	      0.08551273	      1.29041333	     -0.01807364	     72.25854178	     -7.93711478	      6.86404888	     69.55158158	      1.21390410	      2.33214095	    -28.91648272	      0.00000000	     52.68672338	     -6.32431597	      2.45919321	     75.99167822	      1.32630499	     -3.65365890	    -11.36918510	      0.00000000	    -49.29351041	     -3.65740694	     -1.45257458	     54.22004890	     19.62369435	    -39.94926391	     54.37745876	      0.86780137	      0.00000000	      0.00000000	     54.30340724	      6.16371877	    -19.63392932	     41.37823206	      2.96267221	      0.00000000	      0.00000000
      4.01700000	    -17.45402816	     -0.63306716	     11.92263543	      0.08510496	      1.29065624	     -0.01926214	     70.21164677	     -8.83788522	      5.72652147	     66.18067169	      1.15507062	      0.11529170	    -29.57574506	      0.00000000	     54.42356745	     -5.73853499	      3.49273730	     79.62094527	      1.38964765	     -3.32781473	    -10.87478564	      0.00000000	    -49.39811356	     -3.08734869	     -1.96756770	     54.12515596	     19.64568993	    -40.15683215	     54.41100171	      0.87317326	      0.00000000	      0.00000000	     54.30130313	      6.33896972	    -19.73616574	     41.44563287	      2.98440173	      0.00000000	      0.00000000
      4.03300000	    -17.48501530	     -0.09115066	     12.48827147	      0.08481545	      1.29111382	     -0.02003418	     68.27043000	     -9.63672161	      5.48000963	     62.83863077	      1.09674100	     -2.06854605	    -29.11480188	      0.00000000	     55.98833437	     -4.98782557	      3.71254487	     82.92084564	      1.44724177	     -3.02044157	    -10.63149306	      0.00000000	    -49.54667833	     -3.27071199	     -2.70403800	     53.92618752	     19.70807515	    -40.32173672	     54.60333431	      0.86486440	      0.00000000	      0.00000000	     54.37421763	      6.44863371	    -19.71072787	     41.41772924	      3.00526887	      0.00000000	      0.00000000
      4.05000000	    -17.42282183	     -0.39695872	     13.48199836	      0.08419657	      1.29119176	     -0.02127563	     66.19109813	    -10.42003186	      4.01840800	     59.60229932	      1.04025636	     -5.29517534	    -29.91665157	      0.00000000	     57.98330220	     -4.36982528	      4.95005198	     86.29630320	      1.50615462	     -2.81119022	    -10.23959139	      0.00000000	    -49.55870751	     -2.44599992	     -3.10626544	     53.85572951	     19.70423463	    -40.46603741	     54.56924667	      0.86600521	      0.00000000	      0.00000000	     54.32237649	      6.62805322	    -19.88918676	     41.53373306	      3.15199543	      0.00000000	      0.00000000
